Patient4_TMGait_0pt4_03_right_26_EMG.mot
version=1
nRows=29
nColumns=33
inDegrees=no
endheader
time	1LAddLong	2LGlutMax	3LGlutMed	4LIliopsoas	5LSemiMemb	6LBicFemLong	7LRecFem	8LVastMed	9LVastLat	10LGasMed	11LTibAnt	12lTibPost	13LPeroneusLong	14LSol	15LExtDigLong	16LFlexDigLong	17RAddLong	18RGlutMax	19RGlutMed	20RIliopsoas	21RSemiMemb	22RBicFemLong	23RRecFem	24RVastMed	25RVastLat	26RGasMed	27RTibAnt	28RTibPost	29RPeroneusLong	30RSol	31RExtDigLong	32RFlexDigLong
34.993	0.004883	-0.093842	0.008545	0.001221	-0.009003	-0.04303	0.020905	-0.003357	0.020294	-0.009918	-0.011902	-0.00885	0.050964	0.005493	0.013885	0.067902	0.021973	-0.088043	0.17075	0.007324	-0.025635	0.13565	-0.028992	-0.081635	0.034943	-0.010681	0.035553	-0.004425	0.020752	-0.035706	0.002594	0.003204
34.994	0.007324	-0.1265	0.079041	-0.015411	0.017395	-0.028839	0.036163	0.006409	0.018463	0.035095	0.000153	-0.006104	-0.02121	-0.010681	0.052185	-0.1503	0.004578	-0.066223	0.33737	0.006866	-0.026855	0.13702	-0.000763	-0.0737	0.024109	-0.007629	0.04425	-0.00946	0.017548	-0.026245	0.004883	-0.002747
34.995	0.009003	-0.10544	0.10712	0.007629	0.027924	-0.018921	0.05188	0.005341	0.023804	0.058594	-0.002594	-0.004578	-0.25757	-0.060577	0.026855	0.10788	0.014191	-0.024109	0.32303	-0.082703	-0.019226	0.1387	-0.014496	-0.090027	0.027008	-0.006104	0.054626	-0.008087	-0.041656	-0.031433	0.001831	-0.002441
34.996	0.009003	-0.073242	0.04837	-0.00885	0.03067	-0.016327	0.045929	0.005188	0.011292	0.11932	-0.007019	0.006714	0.21484	-0.023193	0.025635	0.21652	0.005798	-0.009308	0.047607	-0.25391	-0.028992	0.14297	-0.029602	-0.11093	0.016174	-0.009155	0.060272	-0.003662	-0.049286	-0.036163	0.000153	0.005798
34.997	0.011444	-0.11749	-0.028839	0.007324	0.001221	-0.021362	0.005646	0.020142	-0.008545	0.14023	-0.01297	0.005188	0.36102	0.080719	0.039673	-0.068054	-0.003052	0.036469	-0.066681	-0.21454	-0.031586	0.13367	-0.050354	-0.065918	0.022278	-0.012512	0.071106	0.007629	0.11612	-0.015106	-0.000916	-0.003204
34.998	0.017548	-0.094147	-0.00946	-0.001526	-0.007629	-0.022583	0.019226	0.018768	-0.018005	0.17349	0.010071	0.000458	0.27985	-0.040131	0.023346	-0.11932	-0.007782	0.011749	-0.1651	-0.020905	-0.033722	0.11841	-0.037231	-0.075226	0.021515	-0.006714	0.044403	-0.006409	0.11414	-0.028687	0.000916	0.006866
34.999	0.01358	-0.092316	0.10849	-0.003967	0.005646	-0.010376	0.0354	0.01358	-0.048828	0.17746	0.012512	0.009155	0.021667	-0.2945	0.002594	-0.049133	0.010071	0.02594	-0.085144	0.12146	-0.007935	0.10559	-0.053406	-0.09613	0.007629	-0.009766	0.037689	-0.004272	-0.36102	-0.067291	0.000763	0.000763
35	0.014191	-0.092773	0.094452	0.00946	0.010071	-0.031586	0.023651	-0.001831	-0.039978	0.14236	0.024872	-0.002136	0.077972	-0.32242	0.062561	-0.000153	0.020905	0.009308	-0.086212	0.14084	-0.032349	0.087128	-0.04837	-0.10925	0.028992	-0.015259	0.02655	-0.006561	-0.11765	-0.050812	0.001068	0.008545
35.001	0.005798	-0.081482	0.03418	0.026398	0.026703	-0.061188	0.040588	-0.005341	-0.022888	0.12283	0.015869	-0.007324	0.29907	-0.18951	0.063629	0.022125	0.031433	0.049438	-0.15945	0.089111	-0.040741	0.066376	-0.041809	-0.15152	0.013885	-0.010529	0.053711	-0.003662	0.032349	-0.023346	-0.000458	0.003357
35.002	0.008698	-0.094604	0.045319	0.035553	0.010834	-0.011902	0.027924	-0.001221	-0.008392	-0.031433	0.021057	-0.001831	0.14954	0.041809	0.064087	0.012665	0.043793	0.029297	-0.20798	0.029602	-0.076752	0.11734	-0.0383	-0.099182	0.006866	-0.019836	0.048828	-0.002899	0.017395	-0.011444	0.00061	-0.000153
35.003	-0.002594	-0.077667	0.097198	-0.004578	0.00885	0.018005	0.029907	0	-0.084534	-0.15869	0.004272	0.005493	0.121	0.24841	0.012512	0.003967	0.019073	0.058441	-0.23895	0.11261	-0.19775	0.21072	-0.059967	-0.087585	0.025635	-0.019531	0.12558	-0.003815	0.018616	-0.012817	0.002594	0.004272
35.004	-0.075073	-0.093689	-0.022125	0.005188	0.00885	0.007324	-0.074463	0.005798	-0.076904	-0.121	0.017395	-0.003204	-0.26199	0.18829	-0.035095	0.000916	-0.008087	0.021057	-0.05661	0.088196	0.00473	0.22888	-0.054626	-0.074615	0.034332	-0.021667	0.2272	-0.006256	-0.011444	-0.034485	0.009613	-0.002747
35.005	0.051422	-0.070038	0.13336	0.007629	0.00061	-0.009918	-0.11643	-0.002441	0.068359	-0.05661	0.020447	-0.051117	-0.27985	-0.006104	-0.10437	0.011444	-0.015564	0.019226	0.24139	0.019379	-0.031433	0.19928	-0.031128	-0.007172	0.018463	-0.022583	0.22797	-0.007782	-0.004578	-0.043793	-0.000153	-0.00885
35.006	-0.014038	-0.070801	0.15747	0.00885	0.011597	-0.00946	-0.026855	0.007477	0.16922	-0.027161	0.005951	-0.080414	-0.35507	-0.020752	-0.030365	0.018158	-0.025787	0.018616	0.43076	-0.021667	-0.008545	0.12985	-0.083618	0.016174	0.025787	-0.019684	0.34302	-0.008698	0.12604	-0.029144	0.001678	-0.006256
35.007	0.002899	-0.11566	0.070496	0.016479	0.016022	-0.020447	0.030975	-0.004425	0.1329	-0.013123	-0.022125	0.23178	-0.078125	-0.063629	-0.072327	-0.008698	-0.030823	-0.043182	0.12039	0.004272	0.026398	0.1236	-0.084381	-0.0354	0.034943	-0.01709	0.17319	-0.003357	0.23865	-0.03891	0.005493	0.000153
35.008	0.049133	-0.088196	0.049744	0.009308	0.005493	-0.022583	-0.02182	0.001373	0.064545	-0.002747	-0.00473	0.020142	-0.21088	-0.079498	-0.099335	-0.014801	-0.045624	0.013123	-0.41489	0.004425	0.002899	0.14496	-0.030365	-0.026855	0.026855	-0.014496	-0.3743	-0.005188	0.16007	-0.03891	0.002899	0.005798
35.009	-0.003815	-0.06958	0.028992	0.014038	0.014496	-0.010376	-0.12131	0.005188	-0.095673	-0.027161	-0.007019	0.007629	-0.22385	-0.061798	0.009766	0.01709	-0.044098	0.042877	-0.6694	0.007935	-0.027008	0.13428	-0.046692	-0.017853	0.037994	-0.012817	-0.34973	-0.006104	-0.068054	-0.02182	0.002899	0.002594
35.01	0.007935	-0.078888	0.005493	0.009308	0.003357	-0.008698	-0.063019	0.003357	0.032806	-0.029297	0.005188	-0.031738	-0.074005	0.025024	0.049286	0.006256	-0.023041	0.063324	-0.60425	0.000305	0.00412	0.13214	-0.061951	-0.020294	0.031128	-0.014801	-0.23972	-0.010071	-0.22232	-0.03952	0.003967	-0.002594
35.011	0.003967	-0.025635	-0.015106	0.000916	0.001526	0.021362	0.050354	0.005188	0.066986	-0.022278	0.005951	-0.021667	0.10117	-0.024261	0.004272	0.010834	-0.014191	0.055084	0.26794	-0.022278	-0.011902	0.11993	-0.046997	-0.055695	0.028839	-0.012817	0.12619	-0.00946	-0.27313	-0.02533	0.004425	-0.002594
35.012	0.009766	-0.079651	-0.14633	-0.001373	0.004578	0.032501	0.10162	0.003967	0.057983	-0.011902	-0.010071	-0.015106	0.13992	-0.026703	0.022125	0.025024	-0.006104	0.020599	0.72189	-0.027313	0.04425	0.11505	-0.075226	-0.067596	0.02655	-0.01236	0.298	-0.003357	-0.076447	0.008392	0.00351	0
35.013	0.001221	-0.086517	-0.15793	0.018158	-0.005035	0.031891	0.063171	0.004578	0.052338	-0.018616	0.004578	-0.016022	0.037689	-0.042114	0.058746	-0.002441	-0.00351	-0.048523	0.52994	-0.043488	0.11688	0.10284	-0.049438	-0.071259	0.028381	-0.013123	0.095673	-0.005951	0.15198	-0.067444	0.00473	0.004883
35.014	0.005035	-0.11322	-0.054169	0.010681	0.006104	0.017548	-0.011749	0.008698	0.060883	0.010834	-0.003204	-0.011139	0.18112	-0.004272	0.075836	0.016479	0.002441	-0.048676	0.36148	-0.053711	0.070343	0.081177	-0.081177	-0.06958	0.028534	-0.013733	-0.11368	-0.001984	0.22125	-0.058136	0.002594	0.014648
35.015	-0.000458	-0.13626	-0.06134	0.000305	-0.016937	0.029297	-0.028534	-0.000153	0.053253	0.009766	0.007935	-0.011749	0.073853	0.052795	0.031281	0	0.005341	-0.090027	0.96191	-0.047913	0.022125	0.1326	-0.086517	-0.052185	0.046692	-0.016174	-0.32867	-0.002441	0.093689	-0.036163	0.00473	0.00473
35.016	-0.001678	-0.11429	-0.093536	0.002899	-0.009003	0.008545	-0.007172	-0.004883	0.035553	-0.016632	0.010834	-0.009155	0.083466	0.068207	-0.027618	0.02121	-0.041809	-0.076599	1.2537	-0.036774	-0.054016	0.1532	-0.064545	-0.079803	0.045776	-0.011597	-0.1683	-0.003052	0.007019	-0.030212	0.004425	0.014191
35.017	0.001984	-0.09491	-0.050049	-0.016785	0.027466	-0.012817	0.042572	0.009766	0.011749	-0.029755	0.016785	-0.007935	-0.048065	0.026093	-0.019073	0.00824	-0.02533	-0.092621	0.49362	0.025177	-0.11536	0.1535	-0.097351	-0.086212	0.033112	-0.013123	-0.039063	-0.006866	-0.10986	-0.021667	0.002441	0.005646
35.018	0.000305	-0.078125	-0.15121	0.025177	0.019073	-0.000153	0.041504	0.005646	0.037231	-0.027313	0.011139	-0.009308	-0.075684	0.012054	0.001526	-0.010834	-0.020599	-0.14084	-0.14114	-0.041351	-0.040283	0.14923	-0.065918	-0.054626	0.022278	-0.01236	0.038147	-0.007019	-0.32974	-0.00473	0.002441	-0.000916
35.019	0.004578	-0.082703	-0.24368	-0.001831	0.014038	-0.01236	0.034027	0.003204	0.032806	-0.006714	0.009766	-0.011444	-0.028839	-0.011139	0.025024	0.017548	-0.005188	-0.081635	-0.23315	-0.14374	0.051727	0.12817	-0.012817	-0.028229	0.016327	-0.007324	0.064392	-0.011902	-0.2388	-0.022583	0.006104	0
35.02	-0.003815	-0.059204	-0.094604	-0.03006	0.018463	-0.022278	0.056305	0.011292	0.015259	-0.010681	0.004578	-0.012665	0.056915	-0.057068	0.015869	0.020294	0.012207	-0.034027	0.003204	-0.20966	0.052948	0.10681	0.002747	-0.043182	0.017242	-0.014343	0.08667	-0.004578	-0.10651	-0.023651	0.004883	-0.002899
35.021	0.008545	-0.05722	0.10101	-0.002441	0.00824	-0.006866	0.056915	0.005493	-0.02243	-0.047913	0.019226	-0.010223	-0.02655	-0.07019	-0.029297	0.006561	0.030365	-0.079956	0.034943	-0.1648	-0.017395	0.09903	-0.014191	-0.095673	0.013275	0.005493	0.075073	-0.002136	0.10025	-0.051422	0.006866	-0.00412
